# xmcd
#
# Track frame offsets: 
#        150
#        16870
#        28842
#        41387
#        58208
#        72163
#        85283
#        96128
#        110554
#        124195
#
# Disc length: 1814 seconds
#
# Revision: 0
# Processed by: cddbd v1.5.2PL0 Copyright (c) Steve Scherf et al.
# Submitted via: ExactAudioCopy v0.99pb5
#
DISCID=8207140a
DTITLE=The Boom Chucka Boys - The Boom Chucka Boys
DYEAR=2013
DGENRE=Contemporary Country
TTITLE0=Love So True
TTITLE1=Caffeine
TTITLE2=It's a good Pain
TTITLE3=Sad Eyes
TTITLE4=Peace Of Mind
TTITLE5=Shake Your Boogie Woogie
TTITLE6=Everybody Hates Me
TTITLE7=Book Of Who I An
TTITLE8=Acceptable Addiction
TTITLE9=I Was Wrong
EXTD=
EXTT0=
EXTT1=
EXTT2=
EXTT3=
EXTT4=
EXTT5=
EXTT6=
EXTT7=
EXTT8=
EXTT9=
PLAYORDER=
